<svg width="336" height="263" viewBox="0 0 336 263" fill="none" xmlns="http://www.w3.org/2000/svg">
<path d="M311.175 79.7751C309.82 69.5891 309.629 52.0451 319.09 46.1541C319.259 46.0461 319.385 45.8901 319.533 45.7561C327.268 43.2821 332.621 39.8101 328.419 35.1381L214.317 0.758057L29.56 26.4451C29.56 26.4451 8.40297 29.4691 10.293 62.3391C11.319 80.2291 16.93 89.0151 21.837 93.3391L6.67597 97.9081C2.46797 102.58 7.81997 106.053 15.556 108.523C15.703 108.661 15.827 108.816 15.999 108.924C25.454 114.82 25.272 132.362 23.912 142.55C-10.055 152.195 2.13797 155.338 2.13797 155.338L9.58897 157.141C4.34797 161.877 -0.857035 170.858 0.117965 187.891C2.00897 220.755 19.387 223.023 19.387 223.023L140.291 262.321L322.781 218.119C322.781 218.119 334.978 214.971 301.002 205.325C299.636 195.153 299.446 177.613 308.923 171.702C309.097 171.597 309.224 171.438 309.365 171.306C317.101 168.832 322.449 165.363 318.246 160.691L310.314 158.296C315.604 155.106 323.55 146.769 324.795 125.113C325.654 110.217 321.768 101.493 317.27 96.3571L332.948 92.5631C332.949 92.5691 345.146 89.4211 311.175 79.7751ZM158.533 79.354L189.221 73.0471L292.929 51.7351L308.38 48.5571C303.443 57.5931 303.65 69.9591 304.467 77.9071C304.646 79.7051 304.852 81.3471 305.052 82.5951L288.14 86.8001L157.243 119.363L158.533 79.354ZM26.71 111.337L42.159 114.515L141.756 134.989L150.457 136.771L176.55 142.134L177.837 182.144L43.303 148.673L30.04 145.377C30.235 144.127 30.441 142.487 30.628 140.684C31.44 132.742 31.651 120.373 26.71 111.337ZM20.708 60.7571C20.521 52.0141 22.079 45.6911 25.228 42.4771C27.232 40.4251 29.597 39.9981 31.219 39.9981C32.076 39.9981 32.693 40.1171 32.735 40.1171L112.342 66.0701L152.059 79.0191L150.756 119.308L39.334 88.0701L33.454 86.423C33.238 86.362 32.945 86.3201 32.719 86.3101C32.26 86.2771 21.244 85.2631 20.708 60.7571ZM140.579 244.866L23.28 211.98C23.063 211.917 22.773 211.875 22.547 211.864C22.08 211.833 11.059 210.82 10.526 186.32C10.336 177.566 11.902 171.249 15.045 168.032C17.054 165.98 19.42 165.553 21.039 165.553C21.898 165.553 22.513 165.668 22.558 165.668C22.558 165.668 22.563 165.668 22.558 165.668L141.874 204.576L140.579 244.866ZM294.284 203.459C294.469 205.263 294.675 206.902 294.875 208.152L147.063 244.923L148.355 204.913L179.956 198.416L184.623 199.545L202.115 193.86L282.746 177.291L298.203 174.111C293.261 183.146 293.466 195.517 294.284 203.459ZM302.426 149.084C302.157 149.09 301.888 149.126 301.635 149.206L290.487 152.327L184.339 182.091L183.041 141.802L217.867 130.443L302.194 102.942C302.205 102.937 306.63 101.954 309.878 105.257C313.022 108.471 314.582 114.794 314.398 123.537C313.848 148.035 302.827 149.053 302.426 149.084Z" fill="#F7F7F7"/>
</svg>
